<?xml version="1.0" encoding="UTF-8"?><svg id="a" xmlns="http://www.w3.org/2000/svg" viewBox="0 0 1032.81 1045"><defs><style>.c{fill-rule:evenodd;}</style></defs><path id="b" class="c" d="M1030,0c4.79,5.16,2,56,2,68v977h-1C687.37,938.01,343.7,831.01,0,724V343L1030,0Zm-69,100c-23.76,.61-47.39,14.43-68,21l-143,46L65,386v295l895,270,1-1V100Zm-115,135c3.16,5.36-7.38,64.18-10,77-12.33,70.99-24.66,141.99-37,213,21.33,99.66,42.66,199.33,64,299-21-5.67-42-11.34-63-17-8-41.33-16-82.66-24-124-2.91-12.33-8.55-63.42-16-67-10.67,56.99-21.34,113.99-32,171h-1c-20.33-5.67-40.66-11.34-61-17v-4c13.67-55.99,27.34-111.99,41-168,5.33-24.66,10.66-49.33,16-74-14.67-54-29.34-108-44-162-5.29-17.48-21.12-48.04-18-66l60-19c9.33,41.33,18.66,82.66,28,124,2.6,10.92,2.83,38.74,12,43,6.33-46,12.66-92,19-138,2.39-13.15-.16-44.24,9-51l57-20Zm-272,443c-1.33-117.32-2.66-234.65-4-352,19.66-6,39.33-12,59-18,2,107.99,4,215.99,6,324,1.06,45.48,6.3,104.51-28,115-21.56,6.59-49.14-8.77-66-14-30.44-9.44-55.09-14.69-70-39-15.89-25.9-6.1-60.8-12-100-1-77.33-2-154.67-3-232l60-18c2,108.32,4,216.66,6,325l52,9Zm-148-307c3.26,1.38,1.94,1.01,4,3,1,109.66,2,219.32,3,329h-1l-52-15c-.33-56.99-.67-113.99-1-171,0-15.52,3.9-52.63-3-59-1.36,43.82-11.34,89.17-20,129-5.33,29.33-10.67,58.66-16,88h-1c-25-7.67-50-15.34-75-23-10-39.66-20-79.33-30-119-3.97-15.08-5.04-44.9-14-52,.75,50.19,2.91,104.96,3,159-18.33-5.33-36.67-10.66-55-16,.33-57.99,.67-115.99,1-174l86-26c10.26,13.3,10.5,41.23,15,59,9.67,43.66,19.33,87.33,29,131h4c.67-.33,1.33-.67,2-1,12.33-71.99,24.67-143.99,37-216l84-26Z"/></svg>